<svg width="470" height="370" viewBox="0 0 527 385" fill="none" xmlns="http://www.w3.org/2000/svg">
<g clip-path="url(#clip0)">
<path d="M273.99 266.603C272.914 266.427 271.893 266.03 270.997 265.439C270.1 264.848 269.351 264.078 268.803 263.183C268.254 262.287 267.919 261.288 267.82 260.256C267.722 259.224 267.863 258.184 268.234 257.21L235.482 203.41L250.962 198.783L278.317 253.06C279.999 253.76 281.353 255.021 282.122 256.606C282.89 258.19 283.02 259.987 282.487 261.657C281.953 263.326 280.794 264.752 279.228 265.663C277.662 266.575 275.798 266.909 273.99 266.603L273.99 266.603Z" fill="#FFB8B8"/>
<path d="M236.635 212.128C236.164 212.045 235.72 211.86 235.337 211.586C234.954 211.313 234.642 210.959 234.427 210.553L225.786 194.37C225.456 193.753 225.364 193.046 225.525 192.371C225.686 191.696 226.09 191.096 226.668 190.674L235.917 183.917C236.506 183.482 237.241 183.263 237.986 183.3C238.731 183.337 239.437 183.627 239.976 184.117L252.803 195.693C253.116 195.976 253.365 196.317 253.532 196.696C253.699 197.075 253.782 197.482 253.775 197.893C253.768 198.304 253.672 198.709 253.492 199.082C253.311 199.455 253.052 199.789 252.729 200.062L239.294 211.427C238.938 211.73 238.512 211.952 238.051 212.073C237.59 212.195 237.105 212.213 236.635 212.128H236.635Z" fill="black"/>
<path d="M527 139.758C527 98.3228 491.634 0 448.008 0C404.381 0 369.015 98.3228 369.015 139.758C369.012 149.612 371.053 159.37 375.022 168.475C378.99 177.58 384.808 185.853 392.143 192.822C399.479 199.791 408.188 205.319 417.773 209.091C427.358 212.862 437.632 214.804 448.008 214.804C458.383 214.804 468.657 212.862 478.242 209.091C487.827 205.319 496.536 199.791 503.872 192.822C511.207 185.853 517.025 177.58 520.993 168.475C524.962 159.37 527.003 149.612 527 139.758Z" fill="black"/>
<path d="M448.008 367.935C448.18 367.935 448.345 367.87 448.467 367.754C448.589 367.638 448.657 367.481 448.657 367.318V63.0071C448.657 62.8435 448.589 62.6865 448.467 62.5709C448.345 62.4552 448.18 62.3902 448.008 62.3902C447.835 62.3902 447.67 62.4552 447.548 62.5709C447.427 62.6865 447.358 62.8435 447.358 63.0071V367.318C447.358 367.481 447.427 367.638 447.548 367.754C447.67 367.87 447.835 367.935 448.008 367.935Z" fill="#3F3D56"/>
<path d="M448.008 112.943C448.093 112.943 448.177 112.927 448.256 112.896C448.335 112.865 448.407 112.82 448.467 112.762L479.732 83.068C479.853 82.9521 479.92 82.7955 479.92 82.6325C479.919 82.4695 479.851 82.3133 479.729 82.1981C479.608 82.0828 479.443 82.0179 479.272 82.0174C479.1 82.017 478.935 82.081 478.813 82.1956L447.548 111.89C447.457 111.976 447.396 112.086 447.371 112.206C447.346 112.326 447.358 112.45 447.408 112.562C447.457 112.675 447.54 112.771 447.647 112.839C447.754 112.907 447.879 112.943 448.008 112.943V112.943Z" fill="#3F3D56"/>
<path d="M448.008 164.35C448.136 164.35 448.262 164.314 448.368 164.246C448.475 164.178 448.559 164.082 448.608 163.969C448.657 163.857 448.67 163.733 448.645 163.613C448.62 163.493 448.558 163.383 448.467 163.297L396.108 113.568C395.986 113.454 395.821 113.39 395.65 113.39C395.478 113.391 395.314 113.456 395.192 113.571C395.071 113.686 395.003 113.842 395.002 114.005C395.002 114.168 395.069 114.324 395.189 114.44L447.548 164.169C447.609 164.227 447.68 164.272 447.759 164.303C447.838 164.334 447.922 164.35 448.008 164.35Z" fill="#3F3D56"/>
<path d="M495.355 384.712C495.242 384.795 495.123 384.869 495.009 384.95H398.168C396.27 377.648 395.6 370.338 398.434 363.99C402.473 354.945 414.425 349.298 423.927 353.183C426.178 354.128 428.139 355.602 429.625 357.465C433.339 351.152 440 346.392 447.688 346.397C457.321 346.404 465.329 353.886 467.943 362.527C472.152 355.78 480.465 351.065 488.59 353.094C502.18 356.486 506.473 376.551 495.355 384.712Z" fill="#F2F2F2"/>
<path d="M113.601 242.007C113.601 212.233 88.1709 141.58 56.8007 141.58C25.4305 141.58 0 212.233 0 242.007C0.0113854 256.308 6.00076 270.019 16.6517 280.127C27.3027 290.236 41.7437 295.914 56.8007 295.914C71.8578 295.914 86.2987 290.236 96.9497 280.127C107.601 270.019 113.59 256.308 113.601 242.007Z" fill="#E6E6E6"/>
<path d="M56.8007 373.166C56.862 373.166 56.9227 373.155 56.9794 373.133C57.036 373.11 57.0875 373.078 57.1309 373.037C57.1742 372.995 57.2087 372.947 57.2321 372.893C57.2556 372.839 57.2677 372.781 57.2677 372.723V186.856C57.2673 186.738 57.2179 186.626 57.1303 186.543C57.0428 186.46 56.9242 186.414 56.8007 186.414C56.6771 186.414 56.5586 186.46 56.471 186.543C56.3835 186.626 56.3341 186.738 56.3336 186.856V372.723C56.3336 372.781 56.3457 372.839 56.3692 372.893C56.3927 372.947 56.4271 372.995 56.4705 373.037C56.5138 373.078 56.5653 373.11 56.622 373.133C56.6786 373.155 56.7394 373.166 56.8007 373.166Z" fill="#3F3D56"/>
<path d="M56.8007 222.739C56.862 222.739 56.9228 222.727 56.9795 222.705C57.0362 222.683 57.0876 222.65 57.131 222.609L79.6126 201.271C79.7002 201.188 79.7493 201.075 79.7492 200.958C79.7492 200.84 79.6999 200.727 79.6123 200.644C79.5247 200.561 79.406 200.514 79.2821 200.514C79.1583 200.514 79.0396 200.561 78.9521 200.644L56.4704 221.982C56.4051 222.044 56.3607 222.123 56.3427 222.209C56.3247 222.295 56.334 222.384 56.3693 222.465C56.4047 222.546 56.4645 222.616 56.5413 222.664C56.6181 222.713 56.7084 222.739 56.8007 222.739L56.8007 222.739Z" fill="#3F3D56"/>
<path d="M56.8007 259.679C56.893 259.679 56.9833 259.653 57.0601 259.604C57.1368 259.555 57.1967 259.486 57.2321 259.405C57.2674 259.324 57.2767 259.235 57.2587 259.149C57.2407 259.063 57.1962 258.984 57.131 258.922L19.4814 223.188C19.3939 223.104 19.2751 223.058 19.1513 223.058C19.0275 223.058 18.9087 223.104 18.8211 223.187C18.7335 223.271 18.6843 223.383 18.6842 223.501C18.6841 223.619 18.7333 223.731 18.8208 223.815L56.4704 259.549C56.5137 259.59 56.5652 259.623 56.6219 259.645C56.6786 259.667 56.7393 259.679 56.8007 259.679Z" fill="#3F3D56"/>
<path d="M90.5907 384.779C90.5095 384.838 90.4241 384.892 90.3421 384.95H20.7069C19.3424 379.703 18.8606 374.45 20.8987 369.889C23.8025 363.389 32.3968 359.331 39.2293 362.123C40.8479 362.802 42.2581 363.861 43.3271 365.2C45.9972 360.664 50.7868 357.243 56.3154 357.247C63.2417 357.252 69.0006 362.628 70.8799 368.838C73.9063 363.989 79.8839 360.601 85.7265 362.059C95.4988 364.496 98.5855 378.915 90.5907 384.779Z" fill="#F2F2F2"/>
<path d="M117.891 384.95H365.363C365.536 384.95 365.701 384.885 365.823 384.769C365.945 384.654 366.013 384.497 366.013 384.333C366.013 384.17 365.945 384.013 365.823 383.897C365.701 383.781 365.536 383.716 365.363 383.716H117.891C117.718 383.716 117.553 383.781 117.431 383.897C117.309 384.013 117.241 384.17 117.241 384.333C117.241 384.497 117.309 384.654 117.431 384.769C117.553 384.885 117.718 384.95 117.891 384.95Z" fill="#3F3D56"/>
<path d="M235.036 216.018C234.567 215.922 234.128 215.725 233.754 215.442C233.379 215.159 233.078 214.797 232.874 214.385L224.706 197.982C224.395 197.356 224.323 196.647 224.504 195.977C224.685 195.307 225.106 194.717 225.695 194.311L235.137 187.799C235.739 187.38 236.479 187.18 237.223 187.236C237.967 187.292 238.664 187.601 239.189 188.105L251.675 200.013C251.98 200.304 252.218 200.652 252.374 201.034C252.531 201.417 252.602 201.827 252.583 202.237C252.564 202.648 252.456 203.05 252.265 203.418C252.074 203.787 251.804 204.114 251.474 204.378L237.714 215.387C237.349 215.681 236.917 215.89 236.453 216C235.988 216.109 235.503 216.115 235.036 216.018Z" fill="black"/>
<path d="M183.285 371.534L191.503 373.657L204.038 344.563L191.91 341.429L183.285 371.534Z" fill="#FFB8B8"/>
<path d="M205.275 385L179.448 378.326L182.163 368.849L198.66 373.112C201.135 373.751 203.24 375.298 204.514 377.412C205.788 379.526 206.125 382.034 205.452 384.384L205.275 385Z" fill="#2F2E41"/>
<path d="M253.537 377.489L262.053 377.489L266.105 346.29L253.535 346.29L253.537 377.489Z" fill="#FFB8B8"/>
<path d="M278.478 384.999L251.712 385L251.712 375.178L268.808 375.177C271.373 375.177 273.832 376.145 275.646 377.867C277.459 379.589 278.478 381.925 278.478 384.361L278.478 384.999Z" fill="#2F2E41"/>
<path d="M252.772 166.751C259.435 160.423 259.435 150.162 252.772 143.834C246.109 137.506 235.306 137.506 228.643 143.834C221.98 150.162 221.98 160.423 228.643 166.751C235.306 173.079 246.109 173.079 252.772 166.751Z" fill="#FFB8B8"/>
<path d="M250.961 352.677L241.425 286.446C241.354 285.955 241.118 285.498 240.753 285.143C240.387 284.789 239.911 284.556 239.395 284.478C238.879 284.401 238.351 284.483 237.888 284.714C237.425 284.944 237.053 285.309 236.826 285.756L204.369 349.692C204.039 350.335 203.477 350.844 202.786 351.126C202.094 351.408 201.319 351.446 200.601 351.231L188.093 347.43C187.319 347.197 186.671 346.686 186.287 346.007C185.903 345.327 185.814 344.531 186.038 343.79C201.252 292.774 214.388 254.818 229.047 235.404C229.104 235.329 229.163 235.257 229.226 235.187L232.477 231.585C232.77 231.259 233.134 230.998 233.544 230.819C233.954 230.64 234.4 230.548 234.851 230.548H258.783C259.408 230.546 260.02 230.723 260.537 231.056C261.055 231.389 261.455 231.863 261.686 232.415L262.309 233.895C262.359 234.013 262.401 234.135 262.436 234.259C270.259 262.539 272.287 300.098 268.819 352.458C268.768 353.212 268.417 353.92 267.837 354.437C267.257 354.954 266.492 355.243 265.696 355.244H254.058C253.303 355.242 252.574 354.981 252.006 354.51C251.437 354.038 251.066 353.388 250.961 352.677Z" fill="#2F2E41"/>
<path d="M227.89 234.06C224.442 228.819 207.99 201.745 222.758 183.409C223.023 183.084 223.193 182.7 223.253 182.293L223.839 178.029C223.892 177.63 224.031 177.247 224.246 176.901C224.461 176.554 224.748 176.254 225.089 176.016C225.43 175.778 225.819 175.609 226.231 175.519C226.643 175.428 227.07 175.418 227.486 175.489C232.62 176.376 242.289 179.166 249.37 187.878C249.708 188.298 249.921 188.796 249.988 189.32L250.379 192.29C250.428 192.68 250.582 193.052 250.827 193.369C251.072 193.687 251.399 193.938 251.776 194.1C256.293 196.048 266.399 203.638 262.714 231.969C262.626 232.674 262.274 233.326 261.722 233.804C261.17 234.283 260.455 234.558 259.707 234.578L230.637 235.449C230.604 235.45 230.571 235.451 230.539 235.451C230.009 235.45 229.489 235.323 229.026 235.079C228.562 234.836 228.172 234.485 227.89 234.06Z" fill="black"/>
<path d="M216.1 277.481C215.362 276.718 214.808 275.811 214.479 274.823C214.15 273.835 214.053 272.791 214.194 271.763C214.336 270.736 214.713 269.751 215.299 268.877C215.886 268.003 216.666 267.261 217.587 266.705L226.274 205.11L241.505 210.431L228.238 269.272C229.12 270.802 229.38 272.586 228.969 274.287C228.558 275.987 227.505 277.485 226.008 278.497C224.512 279.509 222.677 279.964 220.851 279.777C219.025 279.59 217.334 278.773 216.1 277.481Z" fill="#FFB8B8"/>
<path d="M221.577 212.68C221.258 212.341 221.025 211.937 220.898 211.498C220.771 211.059 220.752 210.599 220.843 210.152L224.414 192.326C224.55 191.647 224.932 191.034 225.494 190.593C226.055 190.152 226.761 189.912 227.49 189.913L239.159 189.932C239.905 189.93 240.627 190.182 241.193 190.644C241.759 191.105 242.132 191.745 242.243 192.446L244.949 209.053C245.015 209.459 244.992 209.874 244.881 210.27C244.77 210.667 244.573 211.038 244.304 211.359C244.034 211.68 243.697 211.945 243.314 212.136C242.931 212.327 242.511 212.44 242.08 212.469L224.133 213.669C223.656 213.702 223.177 213.63 222.734 213.459C222.29 213.287 221.895 213.021 221.577 212.68L221.577 212.68Z" fill="black"/>
<path d="M221.935 145.215C223.203 141.566 224.138 137.821 224.731 134.021C224.918 131.808 224.321 129.427 222.625 127.901C219.45 125.044 214.055 126.404 210.735 129.108C205.936 133.016 203.543 139.021 202.639 144.963C201.734 150.904 202.132 156.946 201.914 162.946C201.697 168.946 200.793 175.115 197.573 180.281C194.352 185.447 188.376 189.412 182.072 188.972C179.527 188.842 177.111 187.869 175.243 186.224C174.325 185.395 173.631 184.369 173.217 183.233C172.803 182.097 172.682 180.883 172.864 179.693C169.642 185.173 171.276 192.599 176.082 196.907C180.888 201.215 188.28 202.432 194.598 200.593C200.916 198.754 206.116 194.142 209.222 188.603C212.328 183.063 213.466 176.664 213.301 170.389C213.175 165.571 212.312 160.714 213.17 155.963C214.027 151.213 217.157 146.39 222.093 145.271L221.935 145.215Z" fill="#2F2E41"/>
<path d="M237.886 170.357C237.216 169.349 236.783 168.215 236.616 167.033C236.449 165.851 236.551 164.649 236.917 163.509C237.283 162.368 237.903 161.315 238.736 160.423C239.568 159.53 240.593 158.818 241.741 158.336C244.835 157.035 248.413 157.533 251.733 156.916C257.681 155.81 262.578 150.649 262.932 144.902C263.285 139.155 258.919 133.412 253.019 132.092C250.665 131.565 248.212 131.689 245.797 131.816C243.479 131.938 241.158 132.06 238.851 132.311C234.285 132.808 229.667 133.858 225.867 136.313C222.068 138.767 219.199 142.832 219.248 147.196C219.304 152.177 221.777 162.093 225.217 165.853C228.536 169.481 231.063 170.789 236.33 171.036L237.886 170.357Z" fill="#2F2E41"/>
<path d="M302.042 230.131H294.028V222.52C294.028 222.275 293.925 222.039 293.743 221.866C293.56 221.692 293.312 221.595 293.054 221.595C292.795 221.595 292.548 221.692 292.365 221.866C292.182 222.039 292.08 222.275 292.08 222.52V230.131H284.066C283.807 230.131 283.559 230.229 283.377 230.402C283.194 230.576 283.091 230.811 283.091 231.057C283.091 231.302 283.194 231.538 283.377 231.711C283.559 231.885 283.807 231.982 284.066 231.982H292.08V239.593C292.08 239.839 292.182 240.074 292.365 240.248C292.548 240.421 292.795 240.519 293.054 240.519C293.312 240.519 293.56 240.421 293.743 240.248C293.925 240.074 294.028 239.839 294.028 239.593V231.982H302.042C302.3 231.982 302.548 231.885 302.731 231.711C302.914 231.538 303.016 231.302 303.016 231.057C303.016 230.811 302.914 230.576 302.731 230.402C302.548 230.229 302.3 230.131 302.042 230.131Z" fill="black"/>
<path d="M279.308 112.302H271.294V104.691C271.294 104.445 271.192 104.21 271.009 104.036C270.826 103.863 270.579 103.765 270.32 103.765C270.062 103.765 269.814 103.863 269.631 104.036C269.449 104.21 269.346 104.445 269.346 104.691V112.302H261.332C261.074 112.302 260.826 112.4 260.643 112.573C260.46 112.747 260.358 112.982 260.358 113.227C260.358 113.473 260.46 113.708 260.643 113.882C260.826 114.055 261.074 114.153 261.332 114.153H269.346V121.764C269.346 122.01 269.449 122.245 269.631 122.418C269.814 122.592 270.062 122.689 270.32 122.689C270.579 122.689 270.826 122.592 271.009 122.418C271.192 122.245 271.294 122.01 271.294 121.764V114.153H279.308C279.567 114.153 279.815 114.055 279.997 113.882C280.18 113.708 280.283 113.473 280.283 113.227C280.283 112.982 280.18 112.747 279.997 112.573C279.815 112.4 279.567 112.302 279.308 112.302Z" fill="black"/>
<path d="M175.383 146.849H167.369V139.238C167.369 138.992 167.266 138.757 167.083 138.583C166.901 138.41 166.653 138.312 166.395 138.312C166.136 138.312 165.888 138.41 165.706 138.583C165.523 138.757 165.42 138.992 165.42 139.238V146.849H157.406C157.148 146.849 156.9 146.946 156.717 147.12C156.535 147.293 156.432 147.529 156.432 147.774C156.432 148.02 156.535 148.255 156.717 148.429C156.9 148.602 157.148 148.7 157.406 148.7H165.42V156.311C165.42 156.556 165.523 156.792 165.706 156.965C165.888 157.139 166.136 157.236 166.395 157.236C166.653 157.236 166.901 157.139 167.083 156.965C167.266 156.792 167.369 156.556 167.369 156.311V148.7H175.383C175.641 148.7 175.889 148.602 176.072 148.429C176.254 148.255 176.357 148.02 176.357 147.774C176.357 147.529 176.254 147.293 176.072 147.12C175.889 146.946 175.641 146.849 175.383 146.849Z" fill="black"/>
</g>
<defs>
<clipPath id="clip0">
<rect width="470" height="370" fill="white"/>
</clipPath>
</defs>
</svg>
